<?xml version="1.0" encoding="utf-8"?>
<!-- Generator: Adobe Illustrator 16.0.0, SVG Export Plug-In . SVG Version: 6.00 Build 0)  -->
<!DOCTYPE svg PUBLIC "-//W3C//DTD SVG 1.1//EN" "http://www.w3.org/Graphics/SVG/1.1/DTD/svg11.dtd">
<svg version="1.1" id="Layer_1" xmlns="http://www.w3.org/2000/svg" xmlns:xlink="http://www.w3.org/1999/xlink" x="0px" y="0px"
	 width="346px" height="340px" viewBox="0 0 281.518 276.866" enable-background="new 0 0 281.518 276.866"
	 xml:space="preserve">
<path fill="#435363" d="M278.449,222.066h-0.12l-2.186-3.347v4.731h-0.885v-6.177h0.944l2.206,3.389l2.185-3.389h0.924v6.177h-0.863
	v-4.731L278.449,222.066z M271.912,223.451h-0.884v-5.334h-1.985v-0.843h4.853v0.843h-1.983V223.451z"/>
<g>
	<defs>
		<rect id="SVGID_1_" x="-472.871" y="-196.042" width="1224" height="792"/>
	</defs>
	<clipPath id="SVGID_2_">
		<use xlink:href="#SVGID_1_"  overflow="visible"/>
	</clipPath>
	<path clip-path="url(#SVGID_2_)" fill="#435363" d="M0,245.63v-0.173c0-17.267,13.014-31.408,31.669-31.408
		c11.453,0,18.308,3.818,23.947,9.369l-8.502,9.805c-4.686-4.25-9.458-6.854-15.531-6.854c-10.239,0-17.614,8.505-17.614,18.916
		v0.173c0,10.411,7.202,19.09,17.614,19.09c6.941,0,11.192-2.778,15.965-7.116l8.502,8.591
		c-6.248,6.681-13.188,10.845-24.902,10.845C13.275,276.866,0,263.071,0,245.63"/>
	<polygon clip-path="url(#SVGID_2_)" fill="#435363" points="73.538,215.089 86.898,215.089 86.898,239.123 111.54,239.123 
		111.54,215.089 124.903,215.089 124.903,275.825 111.54,275.825 111.54,251.443 86.898,251.443 86.898,275.825 73.538,275.825 	"/>
	<polygon clip-path="url(#SVGID_2_)" fill="#435363" points="146.401,215.105 192.943,215.105 192.943,227.182 159.888,227.182 
		159.888,239.699 188.977,239.699 188.977,251.775 159.888,251.775 159.888,264.732 193.384,264.732 193.384,276.809 
		146.401,276.809 	"/>
	<polygon clip-path="url(#SVGID_2_)" fill="#435363" points="212.84,215.089 259.084,215.089 259.084,227.236 226.199,227.236 
		226.199,240.164 255.18,240.164 255.18,252.311 226.199,252.311 226.199,275.825 212.84,275.825 	"/>
	<path clip-path="url(#SVGID_2_)" fill="#435363" d="M131.391,129.446c-22.165,0-40.198-18.032-40.198-40.197
		c0-22.167,18.033-40.199,40.198-40.199c18.296,0,33.764,12.289,38.612,29.042h15.554c-5.176-25.161-27.494-44.141-54.166-44.141
		c-30.491,0-55.297,24.806-55.297,55.298c0,30.491,24.807,55.298,55.297,55.298c26.672,0,48.99-18.98,54.166-44.142h-15.554
		C165.154,117.158,149.687,129.446,131.391,129.446"/>
	<path clip-path="url(#SVGID_2_)" fill="#435363" d="M104.294,116.346c6.942,6.941,16.526,11.243,27.097,11.243v-16.027
		c-6.162,0-11.739-2.498-15.777-6.536L104.294,116.346z"/>
	<path clip-path="url(#SVGID_2_)" fill="#F38B00" d="M93.051,89.249c0,5.487,1.168,10.705,3.254,15.429l14.662-6.447
		c-1.211-2.748-1.888-5.786-1.888-8.982c0-12.323,9.989-22.312,22.313-22.312V50.91C110.25,50.91,93.051,68.108,93.051,89.249"/>
	<path clip-path="url(#SVGID_2_)" fill="#435363" d="M145.292,53.521l-5.812,14.943c4.746,1.849,8.707,5.268,11.229,9.629h17.359
		C164.64,66.841,156.166,57.767,145.292,53.521"/>
	<path clip-path="url(#SVGID_2_)" fill="#F38B00" d="M139.48,110.034l5.812,14.943c10.874-4.247,19.348-13.321,22.777-24.572
		h-17.358C148.187,104.766,144.226,108.186,139.48,110.034"/>
	<path clip-path="url(#SVGID_2_)" fill="#435363" d="M60.461,110.695c-0.255-0.839-0.494-1.685-0.721-2.535
		c-0.013-0.052-0.026-0.104-0.04-0.157c-0.207-0.786-0.4-1.577-0.582-2.372c-0.037-0.163-0.071-0.325-0.106-0.487
		c-0.152-0.683-0.293-1.37-0.427-2.059c-0.057-0.306-0.109-0.614-0.163-0.921c-0.099-0.55-0.193-1.101-0.279-1.654
		c-0.073-0.472-0.135-0.945-0.199-1.419c-0.435-3.232-0.67-6.517-0.667-9.843H42.14c-0.005,3.628,0.224,7.211,0.65,10.746h-0.001
		c0.008,0.078,0.022,0.153,0.032,0.231c0.119,0.963,0.249,1.923,0.399,2.877c0.042,0.264,0.089,0.524,0.133,0.788
		c0.131,0.784,0.266,1.566,0.417,2.344c0.079,0.415,0.167,0.825,0.254,1.237c0.129,0.62,0.259,1.24,0.401,1.856
		c0.125,0.541,0.26,1.08,0.396,1.618c0.121,0.481,0.241,0.964,0.368,1.442c0.172,0.638,0.354,1.269,0.539,1.901
		c0.078,0.264,0.146,0.532,0.226,0.794l0.008-0.002c1.045,3.458,2.284,6.833,3.723,10.101l13.874-6.102
		C62.362,116.366,61.331,113.565,60.461,110.695z"/>
	<path clip-path="url(#SVGID_2_)" fill="#F38B00" d="M131.391,163.363c-20.435,0-38.955-8.32-52.373-21.742l-10.725,10.726
		c16.15,16.151,38.452,26.15,63.098,26.15c45.513,0,83.064-34.066,88.555-78.093h-15.281
		C199.27,135.997,168.466,163.363,131.391,163.363"/>
	<path clip-path="url(#SVGID_2_)" fill="#F38B00" d="M131.391,15.135c16.6,0,31.936,5.488,44.304,14.743l9.071-12.157
		C169.879,6.593,151.404,0,131.391,0C93.52,0,61.162,23.591,48.202,56.879l14.123,5.495C73.107,34.754,99.999,15.135,131.391,15.135
		"/>
	<path clip-path="url(#SVGID_2_)" fill="#435363" d="M204.665,78.093h15.281c-1.638-13.135-6.131-25.381-12.837-36.103l-12.867,8.03
		C199.496,58.407,203.121,67.913,204.665,78.093"/>
	<path clip-path="url(#SVGID_2_)" fill="#F38B00" d="M187.452,78.093h15.33c-4-25.707-21.605-46.962-45.194-56.172L152.11,36
		C170.052,43.004,183.621,58.809,187.452,78.093"/>
	<path clip-path="url(#SVGID_2_)" fill="#435363" d="M131.391,32.092h0.002V16.995h-0.002c-30.604,0-56.821,19.126-67.333,46.053
		l14.07,5.475C86.443,47.223,107.181,32.092,131.391,32.092"/>
	<path clip-path="url(#SVGID_2_)" fill="#F38B00" d="M74.234,89.249L74.234,89.249l-15.098-0.001v0.001
		c0,30.363,18.831,56.399,45.422,67.073l5.605-14.015C89.13,133.862,74.234,113.268,74.234,89.249"/>
	<path clip-path="url(#SVGID_2_)" fill="#435363" d="M131.391,146.405v15.099c36.048,0,66.013-26.536,71.392-61.1H187.45
		C182.247,126.6,159.092,146.405,131.391,146.405"/>
</g>
</svg>
